#!OML:ASF F:\VICON\USERDATA\INSTALL\rory3\rory3.ASF
:FULLY-SPECIFIED
:DEGREES
115
root 1.327665544069677 17.876466802962533 50.106829856357464 -3.3386408855330902 -1.1134859942397182 0.5456425662611522
lfemur 5.469419252730928 -4.356005732101228 -24.831805027551106
ltibia 23.1832866550802
lfoot -5.725454221173824 -1.6306413522447736
ltoes -9.2674745664357
rfemur -23.49799126812509 1.7167556320962518 21.80740630389607
rtibia 50.33049635151899
rfoot -8.865486709002177 -3.245856582538673
rtoes 3.7985137348220683
lowerback 1.0 -0.9703565025338495 -1.062769886760353
upperback 0.25929335657245467 -1.2816620497192421 1.3475023170500964
thorax -4.830014612513725 -0.6142604981708822 2.6031263473002566
lowerneck -17.104900310479593 -2.915875123083893 -1.5694351790971546
upperneck 21.22451850861168 -3.7311614170062897 1.3076984863348466
head 9.700078240996907 -1.7747239445872807 0.3171281926304928
lclavicle -1.09231919307079e-15 -4.164799962248826e-16
lhumerus -28.461658321517884 -1.7628263304753145 83.88303643598229
lradius 27.60905054848645
lwrist 5.97088732389032
lhand -26.929757036571534 23.331918861871316
lfingers nan
lthumb -0.4678750394079811 53.25717813665625
rclavicle -1.2174645620178492e-15 -5.086188576611712e-16
rhumerus -28.55990557115899 -18.3586210918567 -79.5280689686835
rradius 28.764549618858045
rwrist 3.376393802507865
rhand -17.472511176507723 1.0
rfingers nan
rthumb 9.101198921071097 -7.657165932205272
116
root 1.3577248435609102 17.881777379864975 51.623713624434494 -3.213689300633211 -1.5236233411503155 -0.25384379348719155
lfemur 6.956471103723194 -4.011037887074625 -23.68372052326327
ltibia 23.375877818959054
lfoot -4.577439927855101 -1.92799823372196
ltoes -9.199604628387384
rfemur -23.896044760785102 2.3351651723021303 22.948307473730182
rtibia 47.3282901072707
rfoot -9.120818048593991 -2.745154554823444
rtoes 2.858511195137716
lowerback 1.0 -1.0918037015141508 -0.5851662207785799
upperback 0.2443834893231218 -1.3268713470028783 1.6591461786740278
thorax -4.830563500876811 -0.6429958355728517 2.7897660356360205
lowerneck -17.078954745051217 -2.8497310935821454 -1.6415430545406322
upperneck 21.430263894791633 -3.6211202145329926 1.1625615123976292
head 9.76302265239445 -1.7339190470454624 0.2930323799397599
lclavicle -1.094794068292124e-15 -4.1734384530257306e-16
lhumerus -27.438113166278235 -2.519352767640891 83.71047950681853
lradius 27.8708688651591
lwrist 5.478730670211418
lhand -26.88589557837843 23.360898703505022
lfingers nan
lthumb -0.3974430438709045 53.33523610997766
rclavicle -1.2239580571640498e-15 -5.11192533113608e-16
rhumerus -28.817607332402893 -18.656821668518813 -79.64055671635992
rradius 28.767748002308984
rwrist 3.5357087190248926
rhand -17.458766637233335 1.0
rfingers nan
rthumb 9.086382172561207 -7.6737260291732285
117
root 1.3796487403729032 17.891979186899647 52.76333467950986 -3.070594737790442 -1.7740482668643436 -0.8966040116301763
lfemur 7.759789337172766 -3.716396932377953 -22.68688938239411
ltibia 24.331887157986202
lfoot -3.874135296732921 -2.6445562897403017
ltoes -8.882029567863059
rfemur -23.947820498341535 2.7315783162131275 23.707586729927133
rtibia 43.812744314383544
rfoot -9.414692962446011 -2.487019079110336
rtoes 2.1130751674485433
lowerback 1.0 -1.1907433957041742 -0.21235419874943973
upperback 0.22578475093835473 -1.3486662077988492 1.935321246184553
thorax -4.845173403088726 -0.6619859710936983 2.8948070907964043
lowerneck -17.056962957513534 -2.800658564672897 -1.700410006875152
upperneck 21.623994679758745 -3.5360137221353365 1.0211820087409276
head 9.82245289713996 -1.7038393723298375 0.2617278560975699
lclavicle -1.0966714692977368e-15 -4.1810403363239444e-16
lhumerus -26.55718920040569 -3.0351916586687473 83.5390840049563
lradius 28.107117603295343
lwrist 5.06594581066939
lhand -26.878838871169474 23.39221569286084
lfingers nan
lthumb -0.3600970666922251 53.39511725655316
rclavicle -1.2286889596488502e-15 -5.131796241056892e-16
rhumerus -29.05090188839236 -18.855245969740015 -79.67440035413526
rradius 28.812565371668605
rwrist 3.8278497173984607
rhand -17.483116437898314 1.0
rfingers nan
rthumb 9.09547012448547 -7.64487645587903
118
root 1.3901338488285397 17.896406284371363 52.796989120082316 -3.0234225007976976 -2.042394029358383 -1.2928178275136843
lfemur 7.826595706070496 -3.482877035580975 -21.96689530434941
ltibia 26.318917193498045
lfoot -3.598687158023413 -3.1186271623210047
ltoes -7.751478511598617
rfemur -23.642420036205312 2.9118713576412216 24.213283651010396
rtibia 40.11482176273643
rfoot -9.933522796129738 -2.668581993369739
rtoes 1.546088235706664
lowerback 1.0 -1.2126817526846345 0.027394890453151577
upperback 0.22506185310222432 -1.2737268440797742 2.1431532852702246
thorax -4.848630194121495 -0.6299282061851302 2.9395826991476914
lowerneck -17.04432911091224 -2.770322377492972 -1.729274261585861
upperneck 21.75601243205988 -3.4812998434268843 0.894038905743896
head 9.859967693053227 -1.6865048770234394 0.22582897212177805
lclavicle -1.0974595731202695e-15 -4.1838073184910103e-16
lhumerus -25.852074762761898 -3.308039690616961 83.40204984648574
lradius 28.295995587922466
lwrist 4.860522233266486
lhand -26.855826975764135 23.50659170587844
lfingers nan
lthumb -0.3458901534518444 53.47718094672258
rclavicle -1.2319794932692479e-15 -5.148881168120749e-16
rhumerus -29.25073722262215 -18.998449233497464 -79.64426436415587
rradius 28.88276960629391
rwrist 3.714050736748235
rhand -17.463409742464332 1.0
rfingers nan
rthumb 9.076637424727306 -7.6816476901162325
119
root 1.4162414237571594 17.90307368624269 53.41127818442407 -2.960594808603876 -2.0516800943555795 -1.4756480752977335
lfemur 7.26474953650041 -3.3628677203647723 -21.42742510565816
ltibia 29.43651056108685
lfoot -3.950605859550471 -2.772162698054445
ltoes -7.523612613221884
rfemur -22.923980681958184 2.910625794981237 24.521697309855593
rtibia 36.597557514901624
rfoot -10.569088856568571 -3.4729343667236057
rtoes 1.074477865171326
lowerback 1.0 -1.23301690437559 0.20785267593926027
upperback 0.2193270003997257 -1.2501208143570242 2.2610017871635897
thorax -4.853700345257192 -0.6272266632487068 2.9264386739444106
lowerneck -17.0492037991664 -2.7567890936924377 -1.733194735111172
upperneck 21.802403845487326 -3.4558927387232887 0.7908139888953973
head 9.865761479119847 -1.6810279121587919 0.19034153473564033
lclavicle -1.0971576995009138e-15 -4.180865914008841e-16
lhumerus -25.356906313606867 -3.4219442882350517 83.31158693550049
lradius 28.393643406354546
lwrist 4.830593271068171
lhand -26.844820397643375 23.6037552163279
lfingers nan
lthumb -0.3401648178962297 53.55878494305391
rclavicle -1.2344451537448172e-15 -5.165773221695833e-16
rhumerus -29.411698426536304 -19.145245245530422 -79.5707130706762
rradius 28.958813682799686
rwrist 3.8131339485763895
rhand -17.483737125892638 1.0
rfingers nan
rthumb 9.090516537871054 -7.660672770426122
